<svg id="Group_846" data-name="Group 846" xmlns="http://www.w3.org/2000/svg" xmlns:xlink="http://www.w3.org/1999/xlink" width="36" height="36" viewBox="0 0 36 36">
  <defs>
    <style>
      .cls-1 {
        fill: #e3e4e4;
      }

      .cls-2 {
        fill: url(#linear-gradient);
      }

      .cls-3 {
        fill: url(#linear-gradient-2);
      }

      .cls-4 {
        fill: url(#linear-gradient-3);
      }
    </style>
    <linearGradient id="linear-gradient" x1="-5.807" y1="6.806" x2="1.753" y2="-0.753" gradientUnits="objectBoundingBox">
      <stop offset="0" stop-color="#ffd521"/>
      <stop offset="0.05" stop-color="#ffd521"/>
      <stop offset="0.501" stop-color="#f50000"/>
      <stop offset="0.95" stop-color="#b900b4"/>
      <stop offset="1" stop-color="#b900b4"/>
    </linearGradient>
    <linearGradient id="linear-gradient-2" x1="0.009" y1="0.991" x2="0.917" y2="0.082" xlink:href="#linear-gradient"/>
    <linearGradient id="linear-gradient-3" x1="-0.456" y1="1.456" x2="1.313" y2="-0.313" xlink:href="#linear-gradient"/>
  </defs>
  <rect id="Rectangle_450" data-name="Rectangle 450" class="cls-1" width="36" height="36"/>
  <g id="Instagram-Glyph-Color-Logo.wine" transform="translate(6 6)">
    <path id="Path_120" data-name="Path 120" class="cls-2" d="M3.184-4.944a1.589,1.589,0,0,0-1.589-1.59,1.59,1.59,0,0,0-1.59,1.59,1.589,1.589,0,0,0,1.59,1.586A1.588,1.588,0,0,0,3.184-4.944" transform="translate(16.721 10.628)"/>
    <path id="Path_121" data-name="Path 121" class="cls-3" d="M21.767-37.156a6.694,6.694,0,0,1-.412,2.228,3.707,3.707,0,0,1-.9,1.38,3.666,3.666,0,0,1-1.378.9,6.674,6.674,0,0,1-2.23.417c-1.265.056-1.64.068-4.848.068s-3.583-.012-4.848-.068a6.652,6.652,0,0,1-2.227-.417,3.67,3.67,0,0,1-1.38-.9,3.658,3.658,0,0,1-.9-1.38,6.616,6.616,0,0,1-.412-2.228C2.172-38.421,2.16-38.8,2.16-42s.011-3.586.073-4.851a6.66,6.66,0,0,1,.412-2.231,3.652,3.652,0,0,1,.9-1.377,3.712,3.712,0,0,1,1.38-.9,6.653,6.653,0,0,1,2.227-.415c1.265-.056,1.643-.07,4.848-.07s3.583.014,4.848.07a6.675,6.675,0,0,1,2.23.415,3.708,3.708,0,0,1,1.378.9,3.7,3.7,0,0,1,.9,1.377,6.739,6.739,0,0,1,.412,2.231c.059,1.265.073,1.643.073,4.851s-.014,3.582-.073,4.847Zm2.16-9.8a8.722,8.722,0,0,0-.56-2.913,5.849,5.849,0,0,0-1.382-2.127,5.9,5.9,0,0,0-2.124-1.383,8.747,8.747,0,0,0-2.914-.556C15.668-53.993,15.259-54,12-54s-3.669.011-4.948.073a8.782,8.782,0,0,0-2.914.556,5.915,5.915,0,0,0-2.121,1.383A5.9,5.9,0,0,0,.63-49.865a8.873,8.873,0,0,0-.56,2.913C.014-45.672,0-45.263,0-42s.014,3.666.07,4.945a8.91,8.91,0,0,0,.56,2.914,5.886,5.886,0,0,0,1.385,2.124,5.915,5.915,0,0,0,2.121,1.385,8.858,8.858,0,0,0,2.914.557C8.329-30.018,8.741-30,12-30s3.669-.014,4.948-.073a8.823,8.823,0,0,0,2.914-.557,5.9,5.9,0,0,0,2.124-1.385,5.838,5.838,0,0,0,1.382-2.124,8.758,8.758,0,0,0,.56-2.914C23.986-38.336,24-38.745,24-42s-.014-3.67-.073-4.949Z" transform="translate(0 54.004)"/>
    <path id="Path_122" data-name="Path 122" class="cls-4" d="M5.621-18.642A3.61,3.61,0,0,1,2.01-22.25a3.612,3.612,0,0,1,3.611-3.614A3.614,3.614,0,0,1,9.235-22.25a3.612,3.612,0,0,1-3.613,3.608Zm0-9.175A5.564,5.564,0,0,0,.06-22.25a5.561,5.561,0,0,0,5.561,5.562,5.564,5.564,0,0,0,5.564-5.562,5.567,5.567,0,0,0-5.564-5.567Z" transform="translate(6.377 34.251)"/>
  </g>
</svg>
